<svg xmlns="http://www.w3.org/2000/svg" viewBox="0 0 1420 720" font-family="Helvetica Neue, Helvetica, Arial, sans-serif">
  <rect width="1420" height="720" fill="#ffffff"/>
  <text x="710.0" y="40" text-anchor="middle" font-size="24" font-weight="700" fill="#20242a">The LMAX Disruptor feeding a CLOB &#8212; BTC-USD</text>
  <text x="710.0" y="64" text-anchor="middle" font-size="14" fill="#5b6570">consumed events built the book; published events wait in the ring; the claimed event is the next order &#8212; as implemented four times in lmax-bench</text>
  <defs>
    <marker id="arr" viewBox="0 0 10 10" refX="9" refY="5" markerWidth="7" markerHeight="7" orient="auto-start-reverse"><path d="M 0 0 L 10 5 L 0 10 z" fill="#20242a"/></marker>
    <marker id="arrO" viewBox="0 0 10 10" refX="9" refY="5" markerWidth="7" markerHeight="7" orient="auto-start-reverse"><path d="M 0 0 L 10 5 L 0 10 z" fill="#e8833a"/></marker>
    <marker id="arrR" viewBox="0 0 10 10" refX="9" refY="5" markerWidth="7" markerHeight="7" orient="auto-start-reverse"><path d="M 0 0 L 10 5 L 0 10 z" fill="#8a4a4a"/></marker>
  </defs>

  <rect x="120" y="96" width="360" height="64" rx="10" fill="#f4f6f8" stroke="#c9d0d8"/>
  <text x="300" y="122" text-anchor="middle" font-size="14.5" font-weight="600" fill="#20242a">Producer thread &#8212; order gateway</text>
  <text x="300" y="142" text-anchor="middle" font-size="12" fill="#5b6570">claim slot &#8594; write order in place &#8594; publish</text>
  <line x1="300" y1="160" x2="300" y2="186" stroke="#20242a" stroke-width="2" marker-end="url(#arr)"/>

  <path d="M 303.8 208.1 A 122 122 0 0 1 343.1 215.9 L 326.9 258.9 A 76 76 0 0 0 302.4 254.0 Z" fill="#dfe3e8" stroke="#ffffff" stroke-width="1"/><path d="M 350.2 218.8 A 122 122 0 0 1 383.5 241.1 L 352.0 274.6 A 76 76 0 0 0 331.3 260.7 Z" fill="#dfe3e8" stroke="#ffffff" stroke-width="1"/><path d="M 388.9 246.5 A 122 122 0 0 1 411.2 279.8 L 369.3 298.7 A 76 76 0 0 0 355.4 278.0 Z" fill="#dfe3e8" stroke="#ffffff" stroke-width="1"/><path d="M 414.1 286.9 A 122 122 0 0 1 421.9 326.2 L 376.0 327.6 A 76 76 0 0 0 371.1 303.1 Z" fill="#dfe3e8" stroke="#ffffff" stroke-width="1"/><path d="M 421.9 333.8 A 122 122 0 0 1 414.1 373.1 L 371.1 356.9 A 76 76 0 0 0 376.0 332.4 Z" fill="#1b9e8f" stroke="#ffffff" stroke-width="1"/><path d="M 411.2 380.2 A 122 122 0 0 1 388.9 413.5 L 355.4 382.0 A 76 76 0 0 0 369.3 361.3 Z" fill="#1b9e8f" stroke="#ffffff" stroke-width="1"/><path d="M 383.5 418.9 A 122 122 0 0 1 350.2 441.2 L 331.3 399.3 A 76 76 0 0 0 352.0 385.4 Z" fill="#1b9e8f" stroke="#ffffff" stroke-width="1"/><path d="M 343.1 444.1 A 122 122 0 0 1 303.8 451.9 L 302.4 406.0 A 76 76 0 0 0 326.9 401.1 Z" fill="#1b9e8f" stroke="#ffffff" stroke-width="1"/><path d="M 296.2 451.9 A 122 122 0 0 1 256.9 444.1 L 273.1 401.1 A 76 76 0 0 0 297.6 406.0 Z" fill="#1b9e8f" stroke="#ffffff" stroke-width="1"/><path d="M 249.8 441.2 A 122 122 0 0 1 216.5 418.9 L 248.0 385.4 A 76 76 0 0 0 268.7 399.3 Z" fill="#1b9e8f" stroke="#ffffff" stroke-width="1"/><path d="M 211.1 413.5 A 122 122 0 0 1 188.8 380.2 L 230.7 361.3 A 76 76 0 0 0 244.6 382.0 Z" fill="#1b9e8f" stroke="#ffffff" stroke-width="1"/><path d="M 185.9 373.1 A 122 122 0 0 1 178.1 333.8 L 224.0 332.4 A 76 76 0 0 0 228.9 356.9 Z" fill="#1b9e8f" stroke="#ffffff" stroke-width="1"/><path d="M 178.1 326.2 A 122 122 0 0 1 185.9 286.9 L 228.9 303.1 A 76 76 0 0 0 224.0 327.6 Z" fill="#e8833a" stroke="#ffffff" stroke-width="1"/><path d="M 188.8 279.8 A 122 122 0 0 1 211.1 246.5 L 244.6 278.0 A 76 76 0 0 0 230.7 298.7 Z" fill="#dfe3e8" stroke="#ffffff" stroke-width="1"/><path d="M 216.5 241.1 A 122 122 0 0 1 249.8 218.8 L 268.7 260.7 A 76 76 0 0 0 248.0 274.6 Z" fill="#dfe3e8" stroke="#ffffff" stroke-width="1"/><path d="M 256.9 215.9 A 122 122 0 0 1 296.2 208.1 L 297.6 254.0 A 76 76 0 0 0 273.1 258.9 Z" fill="#dfe3e8" stroke="#ffffff" stroke-width="1"/>
  <text x="397" y="353" text-anchor="middle" font-size="10" fill="#fff" font-family="ui-monospace,Menlo,monospace">419</text><text x="382" y="389" text-anchor="middle" font-size="10" fill="#fff" font-family="ui-monospace,Menlo,monospace">420</text><text x="355" y="416" text-anchor="middle" font-size="10" fill="#fff" font-family="ui-monospace,Menlo,monospace">421</text><text x="319" y="431" text-anchor="middle" font-size="10" fill="#fff" font-family="ui-monospace,Menlo,monospace">422</text><text x="281" y="431" text-anchor="middle" font-size="10" fill="#fff" font-family="ui-monospace,Menlo,monospace">423</text><text x="245" y="416" text-anchor="middle" font-size="10" fill="#fff" font-family="ui-monospace,Menlo,monospace">424</text><text x="218" y="389" text-anchor="middle" font-size="10" fill="#fff" font-family="ui-monospace,Menlo,monospace">425</text><text x="203" y="353" text-anchor="middle" font-size="10" fill="#fff" font-family="ui-monospace,Menlo,monospace">426</text><text x="203" y="315" text-anchor="middle" font-size="10" fill="#fff" font-family="ui-monospace,Menlo,monospace">427</text>
  <text x="300" y="322" text-anchor="middle" font-size="14" font-weight="600" fill="#20242a">ring buffer</text>
  <text x="300" y="340" text-anchor="middle" font-size="11" fill="#5b6570">65,536 pre-allocated slots</text>
  <text x="300" y="358" text-anchor="middle" font-size="10" font-family="ui-monospace,Menlo,monospace" fill="#5b6570">index = seq &amp; (N-1)</text>
  <line x1="139" y1="298" x2="172" y2="305" stroke="#e8833a" stroke-width="2.5" marker-end="url(#arrO)"/>

  <rect x="60" y="486" width="300" height="74" rx="8" fill="#fdf2e7" stroke="#e8833a"/>
  <text x="210" y="508" text-anchor="middle" font-size="12" font-weight="700" fill="#e8833a">slot &#8230;427 &#8212; claimed, being written</text>
  <text x="210" y="528" text-anchor="middle" font-size="12.5" fill="#20242a" font-family="ui-monospace,Menlo,monospace">NEW LIMIT BUY 1.00 BTC</text>
  <text x="210" y="546" text-anchor="middle" font-size="12.5" fill="#20242a" font-family="ui-monospace,Menlo,monospace">@ 78,997.50  seq=8,231,427</text>
  <path d="M 228 486 C 242 470 236 456 228 440" stroke="#e8833a" stroke-width="1.5" fill="none" marker-end="url(#arrO)"/>

  <g transform="translate(60,586)">
    <rect x="0" y="0" width="13" height="13" rx="3" fill="#1b9e8f"/><text x="20" y="11" font-size="11.5" fill="#20242a">published, awaiting the core</text>
    <rect x="0" y="22" width="13" height="13" rx="3" fill="#e8833a"/><text x="20" y="33" font-size="11.5" fill="#20242a">claimed</text>
    <rect x="0" y="44" width="13" height="13" rx="3" fill="#dfe3e8"/><text x="20" y="55" font-size="11.5" fill="#20242a">free &#8212; consumed and reused, never freed</text>
  </g>
  <text x="60" y="672" font-size="10.5" fill="#5b6570">Slots show the last three digits of the 64-bit sequence 8,231,419 &#8230; 8,231,427 &#8212; the ring has cycled ~125,600 times;</text>
  <text x="60" y="688" font-size="10.5" fill="#5b6570">seq 8,231,427 lands in slot 8,231,427 &amp; 65,535 = 39,427. Sixteen segments drawn for 65,536.</text>

  <path d="M 430 300 C 500 292 560 270 640 240" stroke="#20242a" stroke-width="2.5" fill="none" marker-end="url(#arr)"/>
  <text x="540" y="248" text-anchor="middle" font-size="12" font-weight="600" fill="#20242a">drained in order</text>
  <text x="540" y="264" text-anchor="middle" font-size="11" fill="#5b6570">by ONE thread</text>

  <rect x="392" y="462" width="292" height="178" rx="8" fill="#f4f6f8" stroke="#c9d0d8"/><text x="538" y="480" text-anchor="middle" font-size="12" font-weight="700" fill="#20242a">published events, drained in order</text><text x="404" y="500" font-size="10" fill="#1b9e8f" font-weight="700" font-family="ui-monospace,Menlo,monospace">&#8230;419</text><text x="436" y="500" font-size="10" fill="#20242a" font-family="ui-monospace,Menlo,monospace">NEW  SELL 0.20 @ 78,998.00</text><text x="676" y="500" text-anchor="end" font-size="8.5" fill="#5b6570">rests: new level</text><text x="404" y="517" font-size="10" fill="#1b9e8f" font-weight="700" font-family="ui-monospace,Menlo,monospace">&#8230;420</text><text x="436" y="517" font-size="10" fill="#20242a" font-family="ui-monospace,Menlo,monospace">NEW  BUY  0.65 @ 78,995.50</text><text x="676" y="517" text-anchor="end" font-size="8.5" fill="#5b6570">rests: new level</text><text x="404" y="534" font-size="10" fill="#1b9e8f" font-weight="700" font-family="ui-monospace,Menlo,monospace">&#8230;421</text><text x="436" y="534" font-size="10" fill="#20242a" font-family="ui-monospace,Menlo,monospace">CXL  order &#8230;311</text><text x="676" y="534" text-anchor="end" font-size="8.5" fill="#5b6570">(already gone: no-op)</text><text x="404" y="551" font-size="10" fill="#1b9e8f" font-weight="700" font-family="ui-monospace,Menlo,monospace">&#8230;422</text><text x="436" y="551" font-size="10" fill="#20242a" font-family="ui-monospace,Menlo,monospace">NEW  SELL 1.40 @ 79,001.00</text><text x="676" y="551" text-anchor="end" font-size="8.5" fill="#5b6570">rests: new level</text><text x="404" y="568" font-size="10" fill="#1b9e8f" font-weight="700" font-family="ui-monospace,Menlo,monospace">&#8230;423</text><text x="436" y="568" font-size="10" fill="#20242a" font-family="ui-monospace,Menlo,monospace">CXL  order &#8230;371</text><text x="676" y="568" text-anchor="end" font-size="8.5" fill="#5b6570">kills the 1.05 ask &#8594;</text><text x="404" y="585" font-size="10" fill="#1b9e8f" font-weight="700" font-family="ui-monospace,Menlo,monospace">&#8230;424</text><text x="436" y="585" font-size="10" fill="#20242a" font-family="ui-monospace,Menlo,monospace">NEW  BUY  0.08 @ 78,994.00</text><text x="676" y="585" text-anchor="end" font-size="8.5" fill="#5b6570">rests: new level</text><text x="404" y="602" font-size="10" fill="#1b9e8f" font-weight="700" font-family="ui-monospace,Menlo,monospace">&#8230;425</text><text x="436" y="602" font-size="10" fill="#20242a" font-family="ui-monospace,Menlo,monospace">NEW  SELL 0.55 @ 78,997.00</text><text x="676" y="602" text-anchor="end" font-size="8.5" fill="#5b6570">joins best ask, 4th</text><text x="404" y="619" font-size="10" fill="#1b9e8f" font-weight="700" font-family="ui-monospace,Menlo,monospace">&#8230;426</text><text x="436" y="619" font-size="10" fill="#20242a" font-family="ui-monospace,Menlo,monospace">CXL  order &#8230;390</text><text x="676" y="619" text-anchor="end" font-size="8.5" fill="#5b6570">(already gone: no-op)</text><text x="404" y="640" font-size="10" font-weight="600" fill="#e8833a" font-family="ui-monospace,Menlo,monospace">&#8230;427 NEW BUY 1.00 @ 78,997.50 &#8592; writing</text>

  <text x="1006" y="104" text-anchor="middle" font-size="15" font-weight="700" fill="#20242a">Single-writer matching core &#8212; the BTC-USD limit order book</text>
  <rect x="686" y="124" width="640" height="36" rx="6" fill="#f6e2e2" opacity="0.45"/><text x="792" y="143" text-anchor="end" font-size="13.5" font-weight="400" fill="#c95555" font-family="ui-monospace,Menlo,monospace">79,000.50</text><rect x="810" y="126" width="62" height="26" rx="6" fill="#c95555" stroke="#c95555"/><text x="841.0" y="143" text-anchor="middle" font-size="12" fill="#ffffff" font-family="ui-monospace,Menlo,monospace">0.75</text><rect x="880" y="126" width="68" height="26" rx="6" fill="#c95555" stroke="#c95555"/><text x="914.0" y="143" text-anchor="middle" font-size="12" fill="#ffffff" font-family="ui-monospace,Menlo,monospace">1.20</text><rect x="686" y="164" width="640" height="36" rx="6" fill="#f6e2e2" opacity="0.45"/><text x="792" y="183" text-anchor="end" font-size="13.5" font-weight="400" fill="#c95555" font-family="ui-monospace,Menlo,monospace">78,999.00</text><rect x="810" y="166" width="81" height="26" rx="6" fill="#c95555" stroke="#c95555"/><text x="850.5" y="183" text-anchor="middle" font-size="12" fill="#ffffff" font-family="ui-monospace,Menlo,monospace">2.10</text><rect x="686" y="204" width="640" height="36" rx="6" fill="#f6e2e2" opacity="0.45"/><text x="792" y="223" text-anchor="end" font-size="13.5" font-weight="400" fill="#c95555" font-family="ui-monospace,Menlo,monospace">78,998.50</text><rect x="810" y="206" width="57" height="26" rx="6" fill="#c95555" stroke="#c95555"/><text x="838.5" y="223" text-anchor="middle" font-size="12" fill="#ffffff" font-family="ui-monospace,Menlo,monospace">0.40</text><rect x="875" y="206" width="56" height="26" rx="6" fill="#c95555" stroke="#c95555"/><text x="903.0" y="223" text-anchor="middle" font-size="12" fill="#ffffff" font-family="ui-monospace,Menlo,monospace">0.33</text><rect x="939" y="206" width="64" height="26" rx="6" fill="#c95555" stroke="#c95555"/><text x="971.0" y="223" text-anchor="middle" font-size="12" fill="#ffffff" font-family="ui-monospace,Menlo,monospace">0.90</text><rect x="686" y="244" width="640" height="36" rx="6" fill="#f6e2e2" opacity="0.45"/><text x="792" y="263" text-anchor="end" font-size="13.5" font-weight="400" fill="#c95555" font-family="ui-monospace,Menlo,monospace">78,997.50</text><rect x="810" y="246" width="66" height="26" rx="6" fill="#c95555" stroke-dasharray="5 3" stroke="#8a4a4a" stroke-width="1.6" opacity="0.65"/><text x="843.0" y="263" text-anchor="middle" font-size="12" fill="#ffffff" font-family="ui-monospace,Menlo,monospace">1.05</text><text x="890" y="263" font-size="11" fill="#8a4a4a">&#8592; cancel in flight (event &#8230;423)</text><rect x="686" y="284" width="640" height="36" rx="6" fill="#f6e2e2" opacity="0.9"/><text x="792" y="303" text-anchor="end" font-size="13.5" font-weight="700" fill="#c95555" font-family="ui-monospace,Menlo,monospace">78,997.00</text><rect x="810" y="286" width="56" height="26" rx="6" fill="#c95555" stroke="#c95555"/><text x="838.0" y="303" text-anchor="middle" font-size="12" fill="#ffffff" font-family="ui-monospace,Menlo,monospace">0.30</text><rect x="874" y="286" width="63" height="26" rx="6" fill="#c95555" stroke="#c95555"/><text x="905.5" y="303" text-anchor="middle" font-size="12" fill="#ffffff" font-family="ui-monospace,Menlo,monospace">0.85</text><rect x="945" y="286" width="53" height="26" rx="6" fill="#c95555" stroke="#c95555"/><text x="971.5" y="303" text-anchor="middle" font-size="12" fill="#ffffff" font-family="ui-monospace,Menlo,monospace">0.12</text><text x="838.0" y="324" text-anchor="middle" font-size="9.5" fill="#5b6570" font-family="ui-monospace,Menlo,monospace">seq &#8230;398</text><text x="905.5" y="324" text-anchor="middle" font-size="9.5" fill="#5b6570" font-family="ui-monospace,Menlo,monospace">seq &#8230;402</text><text x="971.5" y="324" text-anchor="middle" font-size="9.5" fill="#5b6570" font-family="ui-monospace,Menlo,monospace">seq &#8230;415</text><text x="1332" y="303" text-anchor="end" font-size="12" font-weight="600" fill="#c95555">&#9664; best ask</text><line x1="686" y1="332" x2="1326" y2="332" stroke="#b9c2cc" stroke-width="1" stroke-dasharray="4 4"/><text x="1220" y="346" text-anchor="middle" font-size="12" font-weight="600" fill="#5b6570">spread $0.50</text><rect x="686" y="350" width="640" height="36" rx="6" fill="#dff0ee" opacity="0.95"/><text x="792" y="369" text-anchor="end" font-size="13.5" font-weight="700" fill="#1b9e8f" font-family="ui-monospace,Menlo,monospace">78,996.50</text><rect x="810" y="352" width="57" height="26" rx="6" fill="#1b9e8f" stroke="#1b9e8f"/><text x="838.5" y="369" text-anchor="middle" font-size="12" fill="#ffffff" font-family="ui-monospace,Menlo,monospace">0.42</text><rect x="875" y="352" width="67" height="26" rx="6" fill="#1b9e8f" stroke="#1b9e8f"/><text x="908.5" y="369" text-anchor="middle" font-size="12" fill="#ffffff" font-family="ui-monospace,Menlo,monospace">1.10</text><text x="1332" y="369" text-anchor="end" font-size="12" font-weight="600" fill="#1b9e8f">&#9664; best bid</text><rect x="686" y="390" width="640" height="36" rx="6" fill="#dff0ee" opacity="0.5"/><text x="792" y="409" text-anchor="end" font-size="13.5" font-weight="400" fill="#1b9e8f" font-family="ui-monospace,Menlo,monospace">78,996.00</text><rect x="810" y="392" width="64" height="26" rx="6" fill="#1b9e8f" stroke="#1b9e8f"/><text x="842.0" y="409" text-anchor="middle" font-size="12" fill="#ffffff" font-family="ui-monospace,Menlo,monospace">0.88</text><rect x="686" y="430" width="640" height="36" rx="6" fill="#dff0ee" opacity="0.5"/><text x="792" y="449" text-anchor="end" font-size="13.5" font-weight="400" fill="#1b9e8f" font-family="ui-monospace,Menlo,monospace">78,995.00</text><rect x="810" y="432" width="85" height="26" rx="6" fill="#1b9e8f" stroke="#1b9e8f"/><text x="852.5" y="449" text-anchor="middle" font-size="12" fill="#ffffff" font-family="ui-monospace,Menlo,monospace">2.40</text><rect x="903" y="432" width="54" height="26" rx="6" fill="#1b9e8f" stroke="#1b9e8f"/><text x="930.0" y="449" text-anchor="middle" font-size="12" fill="#ffffff" font-family="ui-monospace,Menlo,monospace">0.15</text><rect x="686" y="470" width="640" height="36" rx="6" fill="#dff0ee" opacity="0.5"/><text x="792" y="489" text-anchor="end" font-size="13.5" font-weight="400" fill="#1b9e8f" font-family="ui-monospace,Menlo,monospace">78,994.50</text><rect x="810" y="472" width="60" height="26" rx="6" fill="#1b9e8f" stroke="#1b9e8f"/><text x="840.0" y="489" text-anchor="middle" font-size="12" fill="#ffffff" font-family="ui-monospace,Menlo,monospace">0.60</text><rect x="686" y="510" width="640" height="36" rx="6" fill="#dff0ee" opacity="0.5"/><text x="792" y="529" text-anchor="end" font-size="13.5" font-weight="400" fill="#1b9e8f" font-family="ui-monospace,Menlo,monospace">78,993.50</text><rect x="810" y="512" width="76" height="26" rx="6" fill="#1b9e8f" stroke="#1b9e8f"/><text x="848.0" y="529" text-anchor="middle" font-size="12" fill="#ffffff" font-family="ui-monospace,Menlo,monospace">1.75</text><rect x="894" y="512" width="59" height="26" rx="6" fill="#1b9e8f" stroke="#1b9e8f"/><text x="923.5" y="529" text-anchor="middle" font-size="12" fill="#ffffff" font-family="ui-monospace,Menlo,monospace">0.55</text><rect x="961" y="512" width="52" height="26" rx="6" fill="#1b9e8f" stroke="#1b9e8f"/><text x="987.0" y="529" text-anchor="middle" font-size="12" fill="#ffffff" font-family="ui-monospace,Menlo,monospace">0.05</text>

  <path d="M 670 124 L 658 124 L 658 546 L 670 546" stroke="#5b6570" stroke-width="1.5" fill="none"/>
  <text x="648" y="343.0" text-anchor="middle" font-size="12" font-weight="600" fill="#5b6570" transform="rotate(-90 648 343.0)">price priority</text>

  <path d="M 810 566 L 982 566" stroke="#5b6570" stroke-width="1.5" marker-end="url(#arr)"/>
  <text x="1000" y="570" font-size="11.5" font-weight="600" fill="#5b6570">time priority (FIFO): the seq tags under the best ask are its arrival order</text>

  <rect x="1130" y="212" width="204" height="30" rx="7" fill="#e8833a"/>
  <text x="1232" y="232" text-anchor="middle" font-size="12.5" font-weight="700" fill="#ffffff" font-family="ui-monospace,Menlo,monospace">BUY 1.00 @ 78,997.50</text>
  <path d="M 1170 244 C 1130 262 1100 274 1068 296" stroke="#e8833a" stroke-width="2.5" fill="none" marker-end="url(#arrO)"/>

  <text x="700" y="600" font-size="12.5" fill="#20242a"><tspan font-weight="700" fill="#e8833a">when &#8230;427 drains:</tspan> it crosses the spread at the best ask &#8212; fills the 0.30 (seq &#8230;398), then 0.70 of the 0.85 (seq &#8230;402):</text>
  <text x="700" y="618" font-size="12.5" fill="#20242a">price first, oldest first. 0.15 of &#8230;402 rests. It never reaches 78,997.50 &#8212; whose lone 1.05 dies to the cancel at &#8230;423 anyway.</text>

  <text x="710.0" y="710" text-anchor="middle" font-size="11" fill="#5b6570">BTC-USD &#8776; $79,000, August 2026. In the benchmark the same book runs on integer ticks; each event carries (kind, side, price, qty, id).</text>
</svg>